# xmcd
# 
# Track frame offsets:
#     13089
#     24175
#     44999
#     46501
#     68170
#     79927
#     92217
#     105088
#     122125
#     129986
#     144759
#     160228
#     170659
#     183991
#     190327
#     207885
# 
# Disc length: 3035
# 
# Revision: 4
# Processed by: cddbd v1.5.2PL0 Copyright (c) Steve Scherf et al.
# Submitted via: fre:ac v1.0.17
# 
DISCID=db0b2d10
DTITLE=Calexico - Feast Of Wire
DYEAR=2003
DGENRE=Americana
TTITLE0=Sunken Waltz
TTITLE1=Quattro (World Drifts In)
TTITLE2=Stucco
TTITLE3=Black Heart
TTITLE4=Pepita
TTITLE5=Not Even Stevie Nicks...
TTITLE6=Close Behind
TTITLE7=Woven Birds
TTITLE8=The Book And The Canal
TTITLE9=Attack El Robot! Attack!
TTITLE10=Across The Wire
TTITLE11=Dub Latina
TTITLE12=Güero Canelo
TTITLE13=Whipping The Horse's Eyes
TTITLE14=Crumble
TTITLE15=No Doze
EXTD=
EXTT0=
EXTT1=
EXTT2=
EXTT3=
EXTT4=
EXTT5=
EXTT6=
EXTT7=
EXTT8=
EXTT9=
EXTT10=
EXTT11=
EXTT12=
EXTT13=
EXTT14=
EXTT15=
PLAYORDER=
